# xmcd
#
# Track frame offsets:
#	150
#	46754
#	93296
#	121724
#	165663
#	189068
#	231645
#	274563
#
# Disc length: 3992 seconds
#
# Revision: 1
# Processed by: cddbd v1.5.2PL0 Copyright (c) Steve Scherf et al.
# Submitted via: audiograbber 1.83.01
#
DISCID=590f9608
DTITLE=Grateful Dead - 77-05-11 St Paul Civic Centre Arena, St Paul MN
DYEAR=1900
DGENRE=
TTITLE0=Scarlet Begonias
TTITLE1=Fire On The Mountain
TTITLE2=Good Lovin
TTITLE3=Uncle John's Band
TTITLE4=Jam
TTITLE5=Wharf Rat
TTITLE6=Around and Around
TTITLE7=Brokedown Palace
EXTD=
EXTT0=
EXTT1=
EXTT2=
EXTT3=
EXTT4=
EXTT5=
EXTT6=
EXTT7=
PLAYORDER=
